<svg height="512" viewBox="0 0 61 61" width="512" xmlns="http://www.w3.org/2000/svg"><g id="Page-1" fill="none" fill-rule="evenodd"><g id="001---No-Wheat" fill-rule="nonzero"><path id="Shape" d="m30 24.68c0 .2.01.31.01.31s4.26.24 6.74-2.24 2.25-6.75 2.25-6.75c-2.0944789-.0723522-4.1638897.473694-5.95 1.57-.2848409.2043732-.5524077.431805-.8.68-2.08 2.08-2.25 5.41-2.25 6.43z" fill="#ffdc00"/><path id="Shape" d="m50.51 9.49c-8.2955824-8.29585686-20.7716554-10.77766299-31.6105726-6.28814153-10.83891713 4.48952146-17.90610598 15.06622233-17.90610598 26.79814153s7.06718885 22.3086201 17.90610598 26.7981415c10.8389172 4.4895215 23.3149902 2.0077154 31.6105726-6.2881415 11.3199214-11.3304405 11.3199214-29.6895595 0-41.02zm-37.48 3.54c8.6942809-8.67231879 22.5274388-9.39674851 32.08-1.68l-33.76 33.76c-7.71674851-9.5525612-6.99231879-23.3857191 1.68-32.08zm33.94 33.94c-8.6942809 8.6723188-22.5274388 9.3967485-32.08 1.68l33.76-33.76c7.7167485 9.5525612 6.9923188 23.3857191-1.68 32.08z" fill="#f44335"/><path id="Shape" d="m50.51 9.49c-5.8053406-5.81199554-13.8068018-8.88352421-22.01-8.449 15.3954353.81952231 27.4584686 13.541768 27.4584686 28.959s-12.0630333 28.1394777-27.4584686 28.959c11.9884862.6233883 23.1217746-6.2041631 28.0017401-17.1722236 4.8799655-10.9680606 2.4976932-23.8090242-5.9917401-32.2967764z" fill="#c81e1e"/><path id="Shape" d="m38.94 17.52c.053885-.5047609.0739298-1.0125622.06-1.52-2.094379-.0714623-4.1635376.4745173-5.95 1.57.089275-.3970659.1328912-.8030319.13-1.21 0-3.51-3.18-6.36-3.18-6.36s-3.18 2.85-3.18 6.36c-.0028912.4069681.040725.8129341.13 1.21-1.7861103-1.096306-3.8555211-1.6423522-5.95-1.57 0 0-.24 4.27 2.25 6.75s6.74 2.24 6.74 2.24.01-.11.01-.31c0 .2.01.31.01.31.5074378.0139298 1.0152391-.006115 1.52-.06l-1.53 1.53-2.53 2.53c-2.51-2.21-6.47-1.99-6.47-1.99s-.22 3.95 1.99 6.47l-11.64 11.64c-7.75125679-9.5453556-7.0343824-23.4049721 1.6603227-32.0996773 8.6947052-8.6947051 22.5543217-9.41157949 32.0996773-1.6603227z" fill="#f5f5f5"/><path id="Shape" d="m20.994 27.311c-.9806969-.2306661-1.9868313-.3351777-2.994-.311 0 0-.22 3.95 1.99 6.47l-9.912 9.912c.4.59.817 1.168 1.272 1.728l11.64-11.64c-1.3384865-1.7703983-2.0416215-3.9400419-1.996-6.159z" fill="#cfd8dc"/><path id="Shape" d="m28.494 24.933c-.5027766-.0507406-1.0017946-.1335762-1.494-.248 0 .2.01.3.01.3.4952717.0151991.9910069-.0021717 1.484-.052z" fill="#cfd8dc"/><path id="Shape" d="m27 10s-3.121 2.8-3.175 6.27c1.1174104.2223332 2.1795916.6642005 3.125 1.3-.089275-.3970659-.1328912-.8030319-.13-1.21.07547-1.6756514.6616964-3.288123 1.68-4.621-.4414543-.6276945-.9438991-1.2101955-1.5-1.739z" fill="#cfd8dc"/><path id="Shape" d="m26.99 24.99s.01-.109.01-.3c-1.4048462-.2859259-2.7029186-.9557313-3.75-1.935-2.1-2.088-2.257-5.434-2.256-6.444-.9807205-.2305261-1.986837-.3350359-2.994-.311 0 0-.24 4.27 2.25 6.75s6.74 2.24 6.74 2.24z" fill="#cfd8dc"/><path id="Shape" d="m45.11 11.35c-4.6838464-3.78951641-10.6242299-5.67382776-16.636-5.277 4.9853683.28957487 9.7544321 2.1351564 13.636 5.277l-4.72 4.72c.5341667-.0634929 1.0723384-.0868916 1.61-.07.0139298.5074378-.006115 1.0152391-.06 1.52z" fill="#cfd8dc"/><path id="Shape" d="m48.65 14.89-12.33 12.34c.8814126-.180189 1.7807742-.2573731 2.68-.23 0 0 .24 4.26-2.25 6.75s-6.74 2.24-6.74 2.24-.01-.11-.01-.31c.0026191-.7959312.083001-1.5897022.24-2.37l-5.28 5.27c1.0441287.338945 1.9979709.9098828 2.79 1.67 2.08 2.09 2.25 5.41 2.25 6.44 0-1.03.17-4.35 2.25-6.44 2.49-2.48 6.75-2.24 6.75-2.24s.24 4.26-2.25 6.74-6.74 2.25-6.74 2.25-.01-.11-.01-.31c0 .2-.01.31-.01.31s-4.26.24-6.74-2.25c-.7635541-.7893997-1.3349963-1.7440845-1.67-2.79l-6.69 6.69c9.5453556 7.7512568 23.4049721 7.0343824 32.0996773-1.6603227 8.6947051-8.6947052 9.4115795-22.5543217 1.6603227-32.0996773z" fill="#f5f5f5"/><path id="Shape" d="m48.65 14.89-1.727 1.729c4.7979528 7.1285534 5.4130774 16.2800006 1.612281 23.9865284s-11.435971 12.788995-20.012281 13.3214716c9.5019271.6006824 18.458911-4.4780515 22.8219848-12.9403812 4.3630738-8.4623298 3.3053684-18.704515-2.6949848-26.0966188z" fill="#cfd8dc"/><g fill="#ffdc00"><path id="Shape" d="m30 24.68c0 .2-.01.31-.01.31s-4.26.24-6.74-2.24-2.25-6.75-2.25-6.75c2.0944789-.0723522 4.1638897.473694 5.95 1.57.2848409.2043732.5524077.431805.8.68 2.08 2.08 2.25 5.41 2.25 6.43z"/><path id="Shape" d="m33.18 16.36c.0028912.4069681-.040725.8129341-.13 1.21-.2848409.2043732-.5524077.431805-.8.68-1.0947967 1.1903535-1.8087004 2.6808453-2.05 4.28-.1285572.7095562-.1954734 1.4289061-.2 2.15 0-1.02-.17-4.35-2.25-6.43-.2475923-.248195-.5151591-.4756268-.8-.68-.089275-.3970659-.1328912-.8030319-.13-1.21 0-3.51 3.18-6.36 3.18-6.36s3.18 2.85 3.18 6.36z"/><path id="Shape" d="m27.47 28.99-4.48 4.48c-2.21-2.52-1.99-6.47-1.99-6.47s3.96-.22 6.47 1.99z"/><path id="Shape" d="m36.75 33.75c-2.48 2.48-6.74 2.24-6.74 2.24s-.01-.11-.01-.31c.0026191-.7959312.083001-1.5897022.24-2.37v-.01l6.07-6.07h.01c.8814126-.180189 1.7807742-.2573731 2.68-.23 0 0 .24 4.26-2.25 6.75z"/><path id="Shape" d="m30 46.69c0 .2-.01.31-.01.31s-4.26.24-6.74-2.25c-.7635541-.7893997-1.3349963-1.7440845-1.67-2.79l3.38-3.38c1.0441287.338945 1.9979709.9098828 2.79 1.67 2.08 2.09 2.25 5.41 2.25 6.44z"/><path id="Shape" d="m36.75 44.75c-2.48 2.49-6.74 2.25-6.74 2.25s-.01-.11-.01-.31c0-1.03.17-4.35 2.25-6.44 2.49-2.48 6.75-2.24 6.75-2.24s.24 4.26-2.25 6.74z"/></g><path id="Shape" d="m29.974 24c-.006-.105-.013-.212-.024-.329s-.026-.25-.042-.38c-.012-.1-.025-.2-.041-.31-.022-.153-.05-.312-.08-.475-.018-.1-.04-.2-.061-.3-.039-.178-.081-.359-.131-.544-.024-.089-.054-.18-.081-.271-.059-.2-.12-.4-.2-.6-.023-.062-.053-.122-.078-.184-.1960582-.5039698-.4451237-.9856752-.743-1.437-.219243-.330879-.4697237-.6399616-.748-.923-.2475923-.248195-.5151591-.4756268-.8-.68-1.7850023-1.0943034-3.8525107-1.6392631-5.945-1.567 0 0 0 .117-.006.306 1.056685.2297198 2.0599128.658705 2.956 1.264.2848409.2043732.5524077.431805.8.68 2.08 2.08 2.25 5.41 2.25 6.43.9796862.2277564 1.9845941.3285833 2.99.3 0 0 .01-.11.01-.31 0-.114 0-.266-.01-.434-.003-.064-.011-.155-.016-.236z" fill="#fec108"/><path id="Shape" d="m30 0c-12.1337409.00016456-23.07264255 7.30942795-27.71600191 18.5195521-4.64335936 11.2101241-2.0767663 24.1135151 6.50300191 32.6934479 7.5675185 7.6340946 18.6411186 10.6359366 29.0281634 7.8689821s18.4998642-10.8797739 21.2668187-21.2668187-.2348875-21.4606449-7.8689821-29.0281634c-5.6134534-5.64487702-13.2521577-8.80903555-21.213-8.787zm19.8 49.8c-10.935238 10.935238-28.664762 10.935238-39.6 0-10.93523805-10.935238-10.93523805-28.664762 0-39.6 10.935238-10.93523805 28.664762-10.93523805 39.6 0 10.935238 10.935238 10.935238 28.664762 0 39.6z" fill="#000"/><path id="Shape" d="m48.7 13.892c-.2827905-.0148421-.5586148.0909087-.759.291l-33.76 33.76c-.2000664.2002587-.3058864.4759273-.2912085.7586191s.1484782.5459188.3682085.7243809c9.9427896 8.0759688 24.3811268 7.3302342 33.4389872-1.7271111 9.0578604-9.0573452 9.8044162-23.49564 1.7290128-33.4388889-.1788726-.2200597-.4427674-.3538246-.726-.368zm-10.718 14.125c-.0486509 1.8485587-.7335066 3.6237441-1.939 5.026-1.4033659 1.1974599-3.1748454 1.8776035-5.019 1.927.0301949-.3992946.0805928-.7968037.151-1.191l5.615-5.615c.442-.076.855-.124 1.192-.147zm-12.782 11.736c.6827916.2812062 1.3066273.6882768 1.839 1.2 1.2001426 1.4050578 1.8827029 3.1788675 1.934 5.026-1.8463457-.0477017-3.6193117-.7327915-5.018-1.939-.5156914-.5304284-.9256598-1.1542048-1.208-1.838zm3.255-.21c-.522656-.5104167-1.1168989-.9419503-1.764-1.281l2.309-2.307v4.233c-.1678203-.225759-.3491519-.4411528-.543-.645zm17.806 6.72c-8.0116884 8.055679-20.7142133 9.030244-29.861 2.291l4.858-4.854c.340815.6452596.773306 1.2377453 1.284 1.759 1.785353 1.5807483 4.0739536 2.4762722 6.458 2.527v2.014c0 .5522847.4477153 1 1 1s1-.4477153 1-1v-2.014c2.3844458-.0519762 4.6735711-.9460883 6.462-2.524 2.768-2.768 2.548-7.319 2.538-7.511-.0282532-.5086423-.4343577-.9147468-.943-.943-.192-.008-4.744-.231-7.512 2.536-.1930948.1960431-.3747294.4030531-.544.62v-3.187c2.3823609-.0512663 4.6697178-.9439626 6.457-2.52 2.775-2.775 2.552-7.321 2.542-7.513-.0285954-.5071733-.4328886-.9123268-.94-.942h-.1l9.6-9.6c6.7381125 9.1481034 5.7609623 21.8510562-2.297 29.861zm-15.238-.284c.0484392-1.8460213.7310321-3.6190677 1.933-5.021 1.4043223-1.1975626 3.1761053-1.8786105 5.021-1.93-.0511747 1.8448159-.7326561 3.6164558-1.931 5.02-1.4037253 1.1986976-3.1758059 1.8802128-5.021 1.931z" fill="#000"/><path id="Shape" d="m30.707 27.167 15.11-15.11c.2000664-.2002587.3058864-.4759273.2912085-.7586191s-.1484782-.5459188-.3682085-.7243809c-9.9431971-8.07130943-24.3778701-7.32336939-33.4336197 1.7323803-9.05574969 9.0557496-9.80368973 23.4904226-1.7323803 33.4336197.1784135.2195565.4414767.3532682.724.368h.052c.2651948-.0000566.5195073-.1054506.707-.293l18.65-18.65zm-3.665-8.214c1.1984846 1.4034604 1.8799859 3.175152 1.931 5.02-1.844848-.0510141-3.6165396-.7325154-5.02-1.931-1.199059-1.4035883-1.8809325-3.175683-1.932-5.021 1.845317.0510675 3.6174117.732941 5.021 1.932zm1.414-1.414c-.1788696-.1766901-.3671433-.3435994-.564-.5-.0418208-.2227407-.0658964-.4484494-.072-.675.1439946-1.8401128.913267-3.5755631 2.18-4.918 1.2659029 1.3413912 2.0351139 3.0752916 2.18 4.914-.0055101.2366665-.0305957.4724712-.075.705-.195332.1496826-.3829086.3092229-.562.478-.6459943.6590226-1.1685957 1.4285304-1.543 2.272-.3740986-.8450723-.8970844-1.6160021-1.544-2.276zm9.518-.467-6.893 6.892-.054.005c.0299144-.4224907.082322-.843087.157-1.26.2087576-1.3979348.8255306-2.7031419 1.773-3.752.2064223-.2072593.4295042-.3972301.667-.568 1.3084416-.8250768 2.8087661-1.296125 4.354-1.367zm-26.528 26.528c-6.72869318-9.1547493-5.76466247-21.8510089 2.2691643-29.8848357 8.0338268-8.03382677 20.7300864-8.99785748 29.8848357-2.2691643l-3.874 3.873c-.1743999-.1885594-.4146662-.3027844-.671-.319-1.6734238-.0453059-3.3391255.2429625-4.9.848-.272-3.663-3.348-6.471-3.486-6.594-.3797036-.33992305-.9542964-.33992305-1.334 0-.138.123-3.216 2.932-3.487 6.6-1.5603658-.6072316-3.2262448-.8968906-4.9-.852-.5086423.0282532-.9147468.4343577-.943.943-.01.193-.231 4.744 2.538 7.512 1.7872661 1.5764517 4.0744122 2.4701282 6.457 2.523v.065l-1.623 1.623c-1.9373779-1.1676677-4.1723333-1.7471649-6.433-1.668-.5086423.0282532-.9147468.4343577-.943.943-.0774926 2.2604828.5018833 4.4949702 1.668 6.433zm11.676-11.676c-.6475635-1.2056672-1.0230375-2.5386001-1.1-3.905 1.3652457.0743743 2.6971029.4500263 3.9 1.1z" fill="#000"/><path id="Shape" d="m12.692 18.1c-4.35619145 6.2929764-4.92618276 14.4631076-1.486 21.3.1592459.3217112.478709.5333868.8370472.5546256s.700569-.1512179.8967023-.4518657c.1961333-.3006477.216075-.6833559.0522505-1.0027599-3.11156427-6.1846139-2.5952621-13.5750993 1.346-19.267.220696-.2935369.2627379-.6844264.1095097-1.0181805s-.4770689-.5566651-.8435333-.5806338-.7165811.154862-.9119764.4658143z" fill="#000"/><circle id="Oval" cx="16" cy="16" fill="#000" r="1"/></g></g></svg>