<svg height="512" viewBox="0 0 60 60" width="512" xmlns="http://www.w3.org/2000/svg"><g id="Page-1" fill="none" fill-rule="evenodd"><g id="023---Washing-Up" fill-rule="nonzero"><g id="Icons_copy" transform="translate(1 1)"><path id="Shape" d="m33.55 38.3c-.4248811 2.2069002-.6092915 4.4533543-.55 6.7v3.12c-2.1163354.5886839-4.3033204.884768-6.5.88l-.9.0000567c2.5001325-2.302898 3.121657-6.0073485 1.51-9.0000567 2.2459988-.0832511 4.4455364-.6638743 6.44-1.7z" fill="#0377bc"/><path id="Shape" d="m41.29 5c-.1878961.29982709-.2883344.64616609-.29 1v3c-1.9314048.74208134-3.7623086 1.7230426-5.45 2.92-6.0640202-4.35585291-14.3716544-3.76957263-19.7638233 1.3947581-5.3921688 5.1643307-6.33633906 13.4389336-2.2461767 19.6852419h-10c-2.30689493-6.2809709-1.94561335-13.2320285 1-19.24.94726003 1.9446186 1.4461781 4.0769808 1.46 6.24 0 0 0-9 6-9-1.7102673.0280147-3.30779633-.8506262-4.2-2.31 8.4067395-9.93846641 23.1211155-11.5597279 33.49-3.69z" fill="#0377bc"/><path id="Shape" d="m12 11c-6 0-6 9-6 9-.03250086-2.1676435-.55197937-4.3002395-1.52-6.24-.84932392-1.694929-2.58418316-2.7637262-4.48-2.76 6 0 6-9 6-9s0 4 1.8 6.69c.89220367 1.4593738 2.4897327 2.3380147 4.2 2.31z" fill="#ffdc00"/><path id="Shape" d="m49 9h-8c-1.9314048.74208134-3.7623086 1.7230426-5.45 2.92-2.64 2-4.81 5-2.55 9.08 2.82 5.07 1.78 10.15 1.2 13.61-.26 1.58-.48 2.72-.65 3.69-.4248811 2.2069002-.6092915 4.4533543-.55 6.7v8c0 2.7614237 2.2385763 5 5 5h14c2.7614237 0 5-2.2385763 5-5v-8c0-4.94-.4-5.52-1.2-10.39-.58-3.46-1.62-8.54 1.2-13.61 4.27-7.68-7.53-11.71-8-12zm-4 36c-3.31 0-6-4.48-6-10s2.69-10 6-10 6 4.48 6 10-2.69 10-6 10z" fill="#008a00"/><path id="Shape" d="m49 9h-3c.47.29 12.27 4.32 8 12-2.82 5.07-1.78 10.15-1.2 13.61.8 4.87 1.2 5.45 1.2 10.39v8c0 2.7614237-2.2385763 5-5 5h3c2.7614237 0 5-2.2385763 5-5v-8c0-4.94-.4-5.52-1.2-10.39-.58-3.46-1.62-8.54 1.2-13.61 4.27-7.68-7.53-11.71-8-12z" fill="#007900"/><path id="Shape" d="m49 6v3h-8v-3c.0016656-.35383391.1021039-.70017291.29-1 .3532988-.61203127 1.0033592-.99218357 1.71-1h4c1.1045695 0 2 .8954305 2 2z" fill="#f44335"/><path id="Shape" d="m47 1v3h-4v-3c0-.55228475.4477153-1 1-1h2c.5522847 0 1 .44771525 1 1z" fill="#c81e1e"/><ellipse id="Oval" cx="45" cy="35" fill="#a4c400" rx="6" ry="10"/><path id="Shape" d="m19 38v13c0 1.8565154-.7374979 3.6369928-2.0502525 4.9497475-1.3127547 1.3127546-3.0932321 2.0502525-4.9497475 2.0502525h-5c-1.85651543 0-3.63699282-.7374979-4.94974747-2.0502525-1.31275465-1.3127547-2.05025253-3.0932321-2.05025253-4.9497475v-13z" fill="#f44335"/><path id="Shape" d="m16 38v13c0 1.8565154-.7374979 3.6369928-2.0502525 4.9497475-1.3127547 1.3127546-3.0932321 2.0502525-4.9497475 2.0502525h3c1.8565154 0 3.6369928-.7374979 4.9497475-2.0502525 1.3127546-1.3127547 2.0502525-3.0932321 2.0502525-4.9497475v-13z" fill="#c81e1e"/><path id="Shape" d="m19 34v4h-19v-4c0-.5522847.44771525-1 1-1h17c.5522847 0 1 .4477153 1 1z" fill="#ff9801"/><path id="Shape" d="m18 33h-3c.5522847 0 1 .4477153 1 1v4h3v-4c0-.5522847-.4477153-1-1-1z" fill="#f57c00"/><path id="Shape" d="m24 43.5c0 1.9329966-1.5670034 3.5-3.5 3.5h-1.5v-7h1.5c1.9329966 0 3.5 1.5670034 3.5 3.5z" fill="#0377bc"/><path id="Shape" d="m28 43.5c-.0164428 4.1353057-3.3646943 7.4835572-7.5 7.5h-1.5v-4h1.5c1.9329966 0 3.5-1.5670034 3.5-3.5s-1.5670034-3.5-3.5-3.5h-1.5v-4.0000001l1.5.0000001c2.7759425-.0003406 5.3224985 1.5406918 6.61 4 .5827331 1.0746486.8886074 2.2775249.89 3.5z" fill="#ff5722"/><path id="Shape" d="m35.55 11.92c-6.0640202-4.35585291-14.3716544-3.76957263-19.7638233 1.3947581-5.3921688 5.1643307-6.33633906 13.4389336-2.2461767 19.6852419h4.46c.5522847 0 1 .4477153 1 1v2h1.5c2.7759425-.0003406 5.3224985 1.5406918 6.61 4 2.2444634-.0770494 4.4439184-.6508203 6.44-1.68.17-1 .39-2.11.65-3.69.58-3.46 1.62-8.54-1.2-13.61-2.26-4.08-.09-7.1 2.55-9.1zm-15.55 18.08s0-7-5-7c5 0 5-7 5-7s0 7 5 7c-5 0-5 7-5 7z" fill="#00bcd4"/><path id="Shape" d="m35.55 11.92c-2.61925-1.8936594-5.7679119-2.9152253-9-2.92-.51 0-1 0-1.52.08 2.7325619.24979087 5.3474402 1.230802 7.57 2.84-2.64 2-4.81 5-2.55 9.08 2.82 5.07 1.78 10.15 1.2 13.61-.26 1.58-.48 2.72-.65 3.69-1.1623238.5917094-2.3957108 1.0319647-3.67 1.31.08.12.16.24.23.37 2.2444634-.0770494 4.4439184-.6508203 6.44-1.68.17-1 .39-2.11.65-3.69.58-3.46 1.62-8.54-1.2-13.61-2.31-4.06-.14-7.08 2.5-9.08z" fill="#00838f"/><path id="Shape" d="m25 23c-5 0-5 7-5 7s0-7-5-7c5 0 5-7 5-7s0 7 5 7z" fill="#ffdc00"/></g><g id="Layer_2"><path id="Shape" d="m20 31c0 .5522847.4477153 1 1 1s1-.4477153 1-1c0-.24.06-6 4-6 .5522847 0 1-.4477153 1-1s-.4477153-1-1-1c-3.94 0-4-5.76-4-6 0-.5522847-.4477153-1-1-1s-1 .4477153-1 1c0 .24-.06 6-4 6-.5522847 0-1 .4477153-1 1s.4477153 1 1 1c3.94 0 4 5.76 4 6zm-.87-7c.8050912-.6360587 1.4462801-1.4555461 1.87-2.39.4237199.9344539 1.0649088 1.7539413 1.87 2.39-.8050912.6360587-1.4462801 1.4555461-1.87 2.39-.4237199-.9344539-1.0649088-1.7539413-1.87-2.39z" fill="#000"/><path id="Shape" d="m38.9 21.26c-.7015237-.8300869-.9416956-1.955893-.64-3 .73-1.87 3.84-3 5-3.27.5495233-.1353098.8853098-.6904767.75-1.24s-.6904767-.8853098-1.24-.75c-.21.05-5.1 1.25-6.37 4.47-.5699529 1.66027-.2532141 3.4966006.84 4.87.1862704.2755788.4973739.4405011.83.44.1966006.0022477.3889572-.057208.55-.17.4382087-.30346.561374-.8972932.28-1.35z" fill="#f5f5f5"/><path id="Shape" d="m46 25c-3.93 0-7 4.83-7 11s3.07 11 7 11 7-4.83 7-11-3.07-11-7-11zm0 20c-2.71 0-5-4.12-5-9s2.29-9 5-9 5 4.12 5 9-2.29 9-5 9z" fill="#000"/><path id="Shape" d="m8 60h5c4.0288573-.0036533 7.4263943-3.0027402 7.93-7h.57c2.0128845.0088755 3.9629793-.7002499 5.5-2h.52c1.8501989-.0002443 3.6947124-.2048176 5.5-.61v3.61c0 3.3137085 2.6862915 6 6 6h13.98c3.3137085 0 6-2.6862915 6-6v-8c.0622931-2.5684564-.1726-5.1355024-.7-7.65-.15-.79-.32-1.72-.51-2.91l-.09-.44c-.57-3.35-1.35-7.94 1.17-12.47 1.0855956-1.7546975 1.3417369-3.8989658.7-5.86-1-2.81-3.86-5.25-8.57-7.28v-2.39c-.0035644-1.26825492-.8042713-2.3972517-2-2.82v-2.18c0-1.1045695-.8954305-2-2-2h-2c-1.1045695 0-2 .8954305-2 2v2.18c-.3069048.11410627-.5937941.27611438-.85.48-10.3399082-7.29728751-24.4735979-5.87325965-33.15 3.34-.62565823-1.59463182-.96421075-3.28739439-1-5 0-.55228475-.44771525-1-1-1s-1 .44771525-1 1c0 .08-.07 8-5 8-.55228475 0-1 .4477153-1 1s.44771525 1 1 1c1.35821722-.0118417 2.62425441.685616 3.34 1.84-2.63734897 5.6956987-3.06152514 12.1688409-1.19 18.16h-1.15c-1.1045695 0-2 .8954305-2 2v17c0 4.418278 3.581722 8 8 8zm7.1-27c-3.4698406-5.6848325-2.6176384-13.0028916 2.0656565-17.7382757 4.6832949-4.7353842 11.9914805-5.66847555 17.7143435-2.2617243-1.0903562.952992-1.9314013 2.157918-2.45 3.51-.670067 1.9880224-.4131557 4.1717685.7 5.95 2.52 4.54 1.74 9.15 1.17 12.54l-.09.49c-.19 1.18-.36 2.11-.51 2.9v.26c-1.570238.7466689-3.2658252 1.194304-5 1.32-1.5564147-2.4746977-4.2765543-3.9745525-7.2-3.97h-.5v-1c0-1.1045695-.8954305-2-2-2zm5.9 9h.5c1.3807119 0 2.5 1.1192881 2.5 2.5s-1.1192881 2.5-2.5 2.5h-.5zm0 9v-2h.5c2.4852813-.0000001 4.4999998-2.0147187 4.4999998-4.5s-2.0147185-4.4999999-4.4999998-4.5h-.5v-2.000002l.5.000002c2.370265-.0018583 4.5524195 1.2905601 5.69 3.37.0019024.0232946.0019024.0467054 0 .07 1.4092218 2.5672371.9214078 5.7605741-1.19 7.79l-.07.05c-1.2017474 1.1197537-2.7874999 1.7354409-4.43 1.72zm7.72-2c1.3298933-2.1244966 1.6416056-4.7318783.85-7.11 1.2639505-.150638 2.5058079-.449355 3.7-.89-.2083106 1.6581681-.2985377 3.3290421-.27 5v2.33c-1.4028566.3553118-2.8356724.5796077-4.28.67zm29-31.68c.4574875 1.4213905.2557596 2.9728615-.55 4.23-2.87 5.15-2 10.34-1.4 13.78l.08.48c.2 1.2.37 2.14.52 2.95.4896888 2.3807895.7011062 4.8104121.63 7.24v8c0 2.209139-1.790861 4-4 4h-14c-2.209139 0-4-1.790861-4-4v-8c-.0610717-2.4444827.1637872-4.8877262.67-7.28.15-.81.32-1.75.52-2.95l.08-.48c.58-3.44 1.47-8.63-1.4-13.78-.8174333-1.2822251-1.0226235-2.8614566-.56-4.31.57-1.59 2.36-3.95 7.74-6.13l.16-.07h7.58l.2.09c4.31 1.81 6.9 3.91 7.69 6.19zm-8.72-10.32v2h-6v-2c0-.55228475.4477153-1 1-1h4c.5522847 0 1 .44771525 1 1zm-4-5h2v2h-2zm-38 6.36c.2382927.59853139.53647495 1.17144334.89 1.71.02799923.0731698.06861451.1408619.12.2.44795818.6725173 1.01370682 1.2585922 1.67 1.73-1.23259909.9226407-2.16499097 2.1890237-2.68 3.64-.16564995-.4111185-.355997-.8118492-.57-1.2-.05386368-.1308641-.12811715-.2523698-.22-.36-.47923418-.8166819-1.1228172-1.5249637-1.89-2.08 1.23259909-.9226407 2.16499097-2.18902373 2.68-3.64zm-3 17.14c-.00716111-2.7790858.48743683-5.5366387 1.46-8.14.32315957 1.1877414.50442358 2.4095951.54 3.64 0 .5522847.44771525 1 1 1s1-.4477153 1-1c0-.08.07-8 5-8 .5522847 0 1-.4477153 1-1s-.4477153-1-1-1c-1.1045972.0186186-2.1614893-.4494858-2.89-1.28 7.9743733-8.83798507 21.3083896-10.29182297 31-3.38-.0625451.21489701-.099468.43643415-.11.66v2.34c-1.5661365.63718205-3.063767 1.4312278-4.47 2.37-2.6781036-1.77147375-5.819028-2.71409889-9.03-2.71-5.7466601-.01121748-11.0836426 2.9736867-14.082227 7.8760045s-3.2251326 11.0131043-.597773 16.1239955h-7.57c-.82416609-2.4147807-1.24644443-4.9484508-1.25-7.5zm.52 9.5h14.48v3h-17v-3zm-2.52 5h17v12c0 3.3137085-2.6862915 6-6 6h-5c-3.3137085 0-6-2.6862915-6-6z" fill="#000"/><path id="Shape" d="m8 56c.55228475 0 1-.4477153 1-1s-.44771525-1-1-1c-.53972674.0324436-1.06750388-.1678295-1.44983721-.5501628-.38233332-.3823333-.58260639-.9101105-.55016279-1.4498372 0-.5522847-.44771525-1-1-1s-1 .4477153-1 1c-.03070972 1.0699851.38084817 2.1053413 1.13775341 2.8622466.75690525.7569052 1.79226154 1.1684631 2.86224659 1.1377534z" fill="#f5f5f5"/></g></g></g></svg>