<svg id="Layer_1" enable-background="new 0 0 128 128" height="512" viewBox="0 0 128 128" width="512" xmlns="http://www.w3.org/2000/svg"><path d="m64 71.6v.1l-.1 31.3-34.6-15.7v-10.3l22.9 10.4 11.8-15.7-34.6-15.8z" fill="#f79f63"/><path d="m109 40.7-11.8 15.7-34.7-15.7 11.9-15.7z" fill="#f5c464"/><path d="m64 71.7-11.8 15.7-22.9-10.4-11.8-5.4 11.9-15.7z" fill="#f5c464"/><g fill="#f68f54"><path d="m74.4 86.8 22.7-10.4v11.4l-33.2 15.2.1-31.3z"/><path d="m64 71.6 33.1-15.1-33.1 15.2z"/><path d="m97.2 56.4v.1h-.1z"/></g><path d="m19 40.7 33.1-15.2 10.4 15.2-33.1 15.2z" fill="#f1b152"/><g fill="#f1b152"><path d="m107.6 71.6-10.5 4.8-22.7 10.4-10.4-15.1 33.1-15.2h.1z"/><path d=""/></g><path d="m29.4 55.9 33.1-15.2 34.7 15.7-33.2 15.2z" fill="#f05a48"/><path d="m64 71.6-1.5-30.9 34.7 15.7z" fill="#ee404c"/><path d="m27.5 87.3c0 .7.4 1.3 1 1.6l34.6 15.8c.5.2.9.2 1.5 0l33.1-15.2c.6-.3 1-.9 1-1.6v-10.3l9.4-4.3c1-.5 1.3-1.7.7-2.6l-9.7-14.1 11.1-14.7c.7-.9.3-2.2-.7-2.6l-34.4-15.9c-.7-.3-1.6-.1-2.1.5l-10.4 13.8-9-13.2c-.5-.7-1.4-1-2.2-.6l-10 4.6c-.9.4-1.3 1.4-.9 2.3s1.4 1.3 2.3.9l8.6-4 8.4 12.2-29.8 13.8-8.4-12.2 3.6-1.7c.9-.4 1.2-1.5.8-2.3s-1.4-1.2-2.3-.8l-5.5 2.5c-1 .5-1.3 1.7-.7 2.6l9.7 14.1-11 14.7c-.7.9-.3 2.2.7 2.6l10.8 4.9zm34.7 13-31.2-14.2v-6.5l20.4 9.4c.8.3 1.6.1 2.1-.5l8.7-11.5zm33.1-13.6-29.6 13.6.1-23 7.2 10.5c.5.7 1.4 1 2.2.6l20.2-9.3zm9.6-15.8-29.9 13.7-8.4-12.2c37.6-17.3 27.4-12.6 29.9-13.7zm-30-43.8 31.4 14.3-9.7 12.8-31.3-14.2zm-12.4 15.5 30.5 13.8c-2.8 1.3 10-4.6-29 13.3l-30.4-13.8zm-42.2 28.3 9.7-12.8 31.4 14.3-9.7 12.8zm10.6-35.6c-.4-.9 0-1.9.9-2.3l1.4-.6c.9-.4 1.9 0 2.3.8.4.9 0 2-.9 2.4l-1.4.6c-.9.3-1.9-.1-2.3-.9z" fill="#1e2a54"/></svg>